<?xml version="1.0" encoding="utf-8"?>
<!-- Generator: Adobe Illustrator 16.0.0, SVG Export Plug-In . SVG Version: 6.00 Build 0)  -->
<!DOCTYPE svg PUBLIC "-//W3C//DTD SVG 1.1//EN" "http://www.w3.org/Graphics/SVG/1.1/DTD/svg11.dtd">
<svg version="1.1" id="Layer_1" xmlns="http://www.w3.org/2000/svg" xmlns:xlink="http://www.w3.org/1999/xlink" x="0px" y="0px"
	 width="200px" height="200px" viewBox="0 0 200 200" enable-background="new 0 0 200 200" xml:space="preserve">
<path fill="#231F20" d="M126.506,134.9c0-8.236,10.543-21.352,0.684-33.349c-7.315-8.899-18.267-8.871-20.191-8.783l-0.143-50.863
	h0.143c0.078-0.479,0.211-1.06,0.444-1.585c0.521-1.215,1.241-1.882,1.241-1.882l0.028-0.386l1.273-1.38v-0.998h0.496v-0.693
	l0.716-0.72v-0.854l-0.204-0.555c0.428-0.162,0.732-0.573,0.732-1.053c0-0.619-0.496-1.131-1.124-1.131
	c-0.275,0-0.532,0.107-0.729,0.275l-0.576-0.583v-1.219l1.377-1.377v-0.972h0.408v-0.671l0.645-0.65V24.61l-0.298-0.645
	c0.278-0.201,0.47-0.541,0.47-0.914c0-0.622-0.506-1.127-1.131-1.127c-0.185,0-0.363,0.045-0.528,0.139l-0.567-0.576v-0.648
	l1.384-1.399v-1.053h0.35v-0.703l0.71-0.706v-0.855l-0.366-0.577c0.292-0.2,0.482-0.538,0.482-0.923
	c0-0.626-0.505-1.125-1.121-1.125c-0.232,0-0.443,0.062-0.615,0.179l-0.758-0.681c0,0,0.055-3.292,0.055-4.571
	c0-1.286-0.421-1.536-0.421-2.038s0.278-0.895,0.278-1.844c0-0.945-2.926-1.254-4.97-2.118C102.652,1.559,101.703,0,101.119,0
	c-0.56,0-0.589,0.298-1.114,0.32C99.483,0.298,99.448,0,98.891,0c-0.583,0-1.542,1.559-3.574,2.424
	c-2.032,0.864-4.967,1.173-4.967,2.118c0,0.949,0.282,1.342,0.282,1.844s-0.424,0.752-0.424,2.038c0,1.279,0.065,4.571,0.065,4.571
	l-0.762,0.681c-0.168-0.117-0.382-0.179-0.612-0.179c-0.619,0-1.121,0.499-1.121,1.125c0,0.385,0.191,0.723,0.483,0.923
	l-0.373,0.577v0.855l0.713,0.706v0.703h0.34v1.053l1.4,1.399v0.648l-0.574,0.576c-0.155-0.094-0.343-0.139-0.534-0.139
	c-0.616,0-1.121,0.505-1.121,1.127c0,0.373,0.185,0.713,0.466,0.914L88.28,24.61v0.862l0.645,0.65v0.671h0.412v0.972l1.377,1.377
	v1.219l-0.577,0.583c-0.198-0.168-0.454-0.275-0.739-0.275c-0.619,0-1.124,0.512-1.124,1.131c0,0.479,0.314,0.891,0.742,1.053
	l-0.21,0.555v0.854l0.719,0.72v0.693h0.496v0.998l1.276,1.38l0.029,0.386c0,0,0.716,0.667,1.241,1.882
	c0.224,0.509,0.347,1.06,0.431,1.533l-0.052,50.905c-2.109-0.078-12.898-0.003-20.126,8.793
	c-9.862,11.997,0.674,25.112,0.674,33.349c0,8.242-16.656,19.653-13.653,40.224c2.819,19.287,18.374,24.854,40.146,24.873V200h0.039
	v-0.003c21.768-0.02,37.322-5.586,40.135-24.873C143.169,154.554,126.506,143.143,126.506,134.9z M100.086,110.108
	c8.114,0,14.691,6.58,14.691,14.696s-6.577,14.689-14.691,14.689c-8.116,0-14.693-6.573-14.693-14.689
	S91.97,110.108,100.086,110.108z M119.887,169.889H80.115v-6.717h39.771V169.889z"/>
</svg>
