<?xml version="1.0" encoding="utf-8"?>
<!-- Generator: Adobe Illustrator 16.0.0, SVG Export Plug-In . SVG Version: 6.00 Build 0)  -->
<!DOCTYPE svg PUBLIC "-//W3C//DTD SVG 1.1//EN" "http://www.w3.org/Graphics/SVG/1.1/DTD/svg11.dtd">
<svg version="1.1" id="Layer_1" xmlns="http://www.w3.org/2000/svg" xmlns:xlink="http://www.w3.org/1999/xlink" x="0px" y="0px"
	 width="200px" height="200px" viewBox="0 0 200 200" enable-background="new 0 0 200 200" xml:space="preserve">
<path fill="#231F20" d="M117.315,136.675c0-12.371,10.786-18.788,10.786-32.649c0-13.314-6.808-21.381-19.247-23.66l0.775,36.537
	H90.364l0.778-36.537c-12.437,2.279-19.244,10.346-19.244,23.66c0,13.861,10.789,20.278,10.789,32.649
	c0,12.37-19.293,13.858-19.293,34.39c0,15.98,15.949,28.936,35.615,28.936h0.012l-7.044-33.915h16.042L100.988,200l0,0
	c19.674,0,35.618-12.955,35.618-28.936C136.605,150.533,117.315,149.045,117.315,136.675z M107.933,148.195H92.074v-6.126h15.859
	V148.195z M106.282,113.802l-1.219-79.515h-10.13l-1.216,79.515H106.282z M105.119,12.296H94.877v19.168h10.242V12.296z M106.926,0
	H93.071v8.548h13.855V0z M116.562,23.973h-8.004v5.832h8.004V23.973z M116.562,13.974h-8.004V19.8h8.004V13.974z M91.445,13.974
	h-8.004V19.8h8.004V13.974z M91.445,23.973h-8.004v5.832h8.004V23.973z"/>
</svg>
