<?xml version="1.0" encoding="utf-8"?>
<!-- Generator: Adobe Illustrator 16.0.0, SVG Export Plug-In . SVG Version: 6.00 Build 0)  -->
<!DOCTYPE svg PUBLIC "-//W3C//DTD SVG 1.1//EN" "http://www.w3.org/Graphics/SVG/1.1/DTD/svg11.dtd">
<svg version="1.1" id="Layer_1" xmlns="http://www.w3.org/2000/svg" xmlns:xlink="http://www.w3.org/1999/xlink" x="0px" y="0px"
	 width="200px" height="200px" viewBox="0 0 200 200" enable-background="new 0 0 200 200" xml:space="preserve">
<path fill="#231F20" d="M99.992,0.008C44.767,0.008,0,44.787,0,99.992c0,55.237,44.767,100,99.992,100
	c55.237,0,100.008-44.763,100.008-100C200,44.787,155.229,0.008,99.992,0.008z M99.992,139.85c-22,0-39.854-17.829-39.854-39.857
	c0-22.013,17.854-39.85,39.854-39.85c22.021,0,39.865,17.837,39.865,39.85C139.857,122.021,122.013,139.85,99.992,139.85z
	 M99.992,92.038c-4.387,0-7.954,3.56-7.954,7.954c0,4.402,3.567,7.962,7.954,7.962c4.41,0,7.978-3.56,7.978-7.962
	C107.97,95.598,104.402,92.038,99.992,92.038z"/>
</svg>
