<?xml version="1.0" encoding="utf-8"?>
<!-- Generator: Adobe Illustrator 16.0.0, SVG Export Plug-In . SVG Version: 6.00 Build 0)  -->
<!DOCTYPE svg PUBLIC "-//W3C//DTD SVG 1.1//EN" "http://www.w3.org/Graphics/SVG/1.1/DTD/svg11.dtd">
<svg version="1.1" id="Layer_1" xmlns="http://www.w3.org/2000/svg" xmlns:xlink="http://www.w3.org/1999/xlink" x="0px" y="0px"
	 width="200px" height="200px" viewBox="0 0 200 200" enable-background="new 0 0 200 200" xml:space="preserve">
<path fill="#231F20" d="M157.124,92.57c-10.168-9.564-19.7-13.405-22.695-11.074c-3.006,2.332,1.833,9.564,1.833,9.564
	s-7.963,8.861-10.176,19.009c-0.934,4.234-1.699,12.05-2.261,20.631c-2.485,1.25-4.164,3.63-4.164,6.368
	c0,2.493,1.391,4.691,3.519,6.004c-0.116,2.823-0.207,5.583-0.274,8.188c-2.054,1.334-3.395,3.489-3.395,5.926
	c0,2.395,1.299,4.529,3.3,5.856c0.007,0.147,0.007,0.303,0.007,0.45c0.088,4.396,0.246,7.893,0.235,10.596
	c-1.208,1.054-1.963,2.535-1.963,4.164c0,0.871,0.218,1.706,0.601,2.443c-0.46,0.436-1.07,0.653-1.867,0.653
	c-4.045,0-4.438-4.094-4.438-9.697c0-0.449-0.042-1.812-0.108-3.953c1.295-1.194,2.089-2.823,2.089-4.628
	c0-1.938-0.934-3.693-2.423-4.915c-0.066-1.875-0.144-3.911-0.229-6.103c1.362-1.053,2.216-2.619,2.216-4.347
	c0-1.882-0.993-3.546-2.549-4.6c-0.07-1.706-0.13-3.469-0.204-5.28c1.496-1.025,2.469-2.654,2.469-4.479
	c0-1.952-1.116-3.688-2.819-4.691c-0.039-1.109-0.084-2.226-0.134-3.363c1.598-0.821,2.669-2.353,2.669-4.115
	c0-1.867-1.219-3.489-2.981-4.255c-0.07-1.644-0.123-3.308-0.196-4.972c2.268-0.695,3.894-2.605,3.894-4.866
	c0-2.366-1.809-4.368-4.27-4.95c-0.038-0.977-0.073-1.938-0.115-2.907c2.64-0.33,4.673-2.367,4.673-4.824
	c0-2.563-2.223-4.663-5.042-4.853c-0.021-0.751-0.053-1.51-0.081-2.268c2.262-0.373,3.975-2.149,3.975-4.284
	c0-2.232-1.885-4.072-4.308-4.318c-0.015-0.351-0.028-0.709-0.039-1.054c1.366-0.021,2.602-0.491,3.554-1.257
	c0.403,0.31,0.938,0.478,1.513,0.478c1.342,0,2.44-0.969,2.44-2.17c0-1.123-0.951-2.036-2.159-2.162
	c-0.141-2.584-2.521-4.635-5.442-4.635c-0.098,0-0.193,0.014-0.284,0.014c-0.021-0.562-0.035-1.109-0.06-1.657
	c0.386,0.745,1.232,1.265,2.212,1.265c1.341,0,2.433-0.983,2.433-2.177c0-1.067-0.859-1.96-2.001-2.142
	c1.054-0.829,1.717-2.03,1.717-3.371c0-2.401-2.12-4.354-4.782-4.473c-0.042-1.124-0.08-0.682-0.119-1.784
	c1.679-0.049,3.037-1.285,3.037-2.802c0-1.559-1.411-2.822-3.152-2.822c-0.028,0-0.07,0-0.099,0.007
	c-0.222-5.801-0.414-5.618-0.587-10.203c0.429-0.484,0.686-1.081,0.686-1.741c0-0.73-0.306-1.397-0.815-1.896
	c-0.102-2.78-0.186-2.872-0.256-4.915c0.572-0.506,0.927-1.215,0.927-1.994c0-0.836-0.414-1.587-1.061-2.1
	c-0.035-1.349-0.06-2.262-0.06-2.669c0-6.762-0.779-17.843-11.218-21.578C87.855-2.887,78.463,6.908,72.08,8.187
	c-6.397,1.292-11.229,1.292-11.229,1.292l-1.955-1.292h-5.084l-1.18-1.039L41.545,7.962l-10.175,4.67l10.831,2.324l10.824,0.471
	l1.573-0.815l6-0.119l1.362-1.222c0,0,4.895,1.103,11.025-0.407c6.133-1.517,18.004-8.279,22.828-5.484
	c4.831,2.802,4.831,4.08,4.831,14.704c0,6.517-1.035,55.614-1.836,99.79h-1.724l0.084-2.275c0.716-0.309,1.197-0.877,1.197-1.559
	c0-0.969-1.054-1.763-2.342-1.763c-1.307,0-2.353,0.794-2.353,1.763c0,0.491,0.238,0.906,0.639,1.229l-0.098,2.605h-0.103v2.599
	l-1.878,49.582l-3.29,0.562l2.903,13.524h0.021v0.008l8.9-0.043c1.148,2.324,2.654,4.571,4.635,6.481
	c1.035,2.971,4.14,5.134,7.809,5.134c0.628,0,1.239-0.07,1.832-0.19c1.503,0.303,3.14,0.471,4.909,0.471
	c23.222,0,23.222-19.942,23.348-31.845c0.13-11.902-0.653-27.526,3.262-40.117c3.911-12.604,10.438-18.552,10.438-18.552
	s7.173,4.192,10.431,1.98C170.697,109.255,167.299,102.142,157.124,92.57z M98.308,149.666h-2.275l0.073-1.944h2.247
	C98.335,148.374,98.314,149.034,98.308,149.666z M98.24,153.402c-0.014,0.758-0.027,1.502-0.035,2.226l-2.404,0.077l0.091-2.303
	H98.24z M97.476,159.413l0.656,0.112c-0.024,0.927-0.039,1.825-0.053,2.668l-1.331-0.421L97.476,159.413z M111.529,64.243
	c-0.066,0.092-0.122,0.204-0.172,0.31c0-0.099,0-0.183-0.007-0.288C111.407,64.258,111.47,64.25,111.529,64.243z M98.455,141.619
	c-0.015,0.801-0.028,1.587-0.046,2.353h-2.156l0.074-2.353H98.455z M95.141,173.148l0.28-7.401l2.574,1.173
	c-0.06,3.11-0.095,4.845-0.095,4.845l-0.779,0.238c0,0-0.008,0.415,0.027,1.124L95.141,173.148z"/>
</svg>
