<?xml version="1.0" encoding="utf-8"?>
<!-- Generator: Adobe Illustrator 16.0.0, SVG Export Plug-In . SVG Version: 6.00 Build 0)  -->
<!DOCTYPE svg PUBLIC "-//W3C//DTD SVG 1.1//EN" "http://www.w3.org/Graphics/SVG/1.1/DTD/svg11.dtd">
<svg version="1.1" id="Layer_1" xmlns="http://www.w3.org/2000/svg" xmlns:xlink="http://www.w3.org/1999/xlink" x="0px" y="0px"
	 width="200px" height="200px" viewBox="0 0 200 200" enable-background="new 0 0 200 200" xml:space="preserve">
<g>
	<path fill="#231F20" d="M97.081,101.91c-4.109-4.952-10.69-7.807-18.043-7.807c-2.184,0-4.36,0.26-6.502,0.735
		c-1.723-6.019-3.236-11.31-4.49-15.765c8.059-10.474,13.155-21.084,15.13-31.515c1.629-8.556,1.175-17.011-1.319-25.12
		C77.597,8.628,68.954,0.699,68.594,0.36C68.327,0.13,67.988,0,67.635,0c-0.144,0-0.281,0.021-0.41,0.064
		C66.647,0.245,53.269,4.7,51.597,31.969c-0.635,10.502,1.889,18.95,4.815,28.746c0.519,1.737,1.052,3.518,1.586,5.363
		c-0.678,0.648-1.355,1.283-2.063,1.953c-6.394,6.069-13.638,12.953-20.55,28.458c-5.962,13.372-4.975,28.357,2.652,40.107
		c7.353,11.324,19.592,17.833,33.583,17.833c3.489,0,7.078-0.411,10.689-1.204c0.49,1.68,1.06,3.453,1.658,5.306
		c3.417,10.683,7.662,23.967,0.051,30.289c-2.782,2.307-5.817,3.481-9.018,3.481c-0.411,0-0.808-0.021-1.226-0.051
		c2.652-2.775,4.059-6.574,3.77-10.495c-0.54-7.1-6.523-12.657-13.645-12.657c-0.339,0-0.685,0.014-1.031,0.036
		c-3.654,0.28-6.97,1.953-9.356,4.729c-2.386,2.768-3.546,6.307-3.272,9.947c0.347,4.577,2.934,8.635,6.928,10.892
		c0.699,0.411,1.478,0.749,2.285,1.023c3.719,1.961,9.385,4.274,15.411,4.274c5.889,0,10.941-2.191,15.007-6.509
		c9.587-10.171,4.534-25.179,0.837-36.143c-0.779-2.321-1.464-4.383-1.954-6.163c6.603-2.609,11.93-8.996,14.417-17.394
		C106.466,122.648,104.13,110.438,97.081,101.91z M54.537,110.567c-3.322,11.367,0.455,18.468,4.203,22.403
		c4.029,4.253,8.809,5.781,9.018,5.846c0.13,0.043,0.281,0.064,0.425,0.064c0.462,0,0.923-0.237,1.189-0.663
		c0.354-0.533,0.288-1.239-0.137-1.715c-0.39-0.411-9.233-10.373-2.682-20.515c1.038-1.601,2.379-2.912,4.072-3.979
		c3.504,12.471,7.346,26.065,9.876,34.917c-2.076,0.497-4.447,0.757-6.928,0.757c-13.212,0-27.687-6.769-30.296-21.898
		c-2.725-15.837,9.299-29.144,18.086-38.86c0.598-0.663,1.182-1.312,1.751-1.938c0.987,3.575,2.091,7.59,3.316,11.979
		C60.47,99.855,56.268,104.649,54.537,110.567z M61.631,32.466c1.535-5.882,6.386-10.271,9.694-10.271h0.008
		c0.944,0,1.68,0.36,2.264,1.11c0.908,1.182,2.681,5.196-0.447,16.859C70.323,50.646,66.69,56.455,63.043,60.78
		C60.06,49.117,58.783,43.437,61.631,32.466z M86.701,143.92c-2.221-7.648-5.983-20.58-9.811-33.907
		c0.166-0.015,0.331-0.015,0.49-0.015h0.007c5.903,0,11.563,4.974,14.106,12.376C93.649,128.652,93.613,137.915,86.701,143.92z"/>
	<rect x="7.453" y="45.751" fill="#231F20" width="5.63" height="111.158"/>
	<rect x="186.91" y="45.751" fill="#231F20" width="5.637" height="111.158"/>
	<path fill="#231F20" d="M7.453,104.246h185.094v-5.63H7.453V104.246z M7.453,158.48h185.094v-5.637H7.453V158.48z M7.453,131.355
		h185.094v-5.622H7.453V131.355z M7.453,44.402v5.63h185.094v-5.63H7.453z M7.453,77.143h185.094v-5.637H7.453V77.143z"/>
</g>
</svg>
