<?xml version="1.0" encoding="utf-8"?>
<!-- Generator: Adobe Illustrator 16.0.0, SVG Export Plug-In . SVG Version: 6.00 Build 0)  -->
<!DOCTYPE svg PUBLIC "-//W3C//DTD SVG 1.1//EN" "http://www.w3.org/Graphics/SVG/1.1/DTD/svg11.dtd">
<svg version="1.1" id="Layer_1" xmlns="http://www.w3.org/2000/svg" xmlns:xlink="http://www.w3.org/1999/xlink" x="0px" y="0px"
	 width="200px" height="200px" viewBox="0 0 200 200" enable-background="new 0 0 200 200" xml:space="preserve">
<path fill="#231F20" d="M157.761,32.576c8.351-0.744,14.916-7.672,14.916-16.209C172.677,7.326,165.354,0,156.313,0
	c-9.033,0-16.359,7.326-16.359,16.367c0,3.188,0.947,6.139,2.533,8.655H57.517c1.582-2.517,2.537-5.468,2.537-8.655
	C60.054,7.326,52.72,0,43.687,0c-9.041,0-16.363,7.326-16.363,16.367c0,8.565,6.61,15.518,15.006,16.217
	c-15.461,27.771-25.112,62.615-25.112,89.674c0,38.613,19.6,65.737,47.817,77.742h69.937c28.222-12.005,47.813-39.129,47.813-77.742
	C182.783,95.215,173.193,60.338,157.761,32.576z M85.328,38.023h11.789v136.332c-4.077-0.102-8.033-0.39-11.789-0.947V38.023z
	 M79.556,172.359c-4.184-0.927-8.119-2.179-11.802-3.756V38.023h11.802V172.359z M102.891,38.023h11.794v135.385
	c-3.765,0.558-7.717,0.846-11.794,0.947V38.023z M120.457,38.023h11.802v130.575c-3.688,1.573-7.618,2.83-11.802,3.761V38.023z
	 M34.539,108.887c0-23.173,6.729-49.976,18.433-70.863h9.009v127.738C44.739,155.939,34.539,137.482,34.539,108.887z
	 M138.027,165.758V38.023h9.066c11.684,20.871,18.367,47.711,18.367,70.863C165.461,137.479,155.269,155.936,138.027,165.758z"/>
</svg>
