<?xml version="1.0" encoding="utf-8"?>
<!-- Generator: Adobe Illustrator 16.0.0, SVG Export Plug-In . SVG Version: 6.00 Build 0)  -->
<!DOCTYPE svg PUBLIC "-//W3C//DTD SVG 1.1//EN" "http://www.w3.org/Graphics/SVG/1.1/DTD/svg11.dtd">
<svg version="1.1" id="Layer_1" xmlns="http://www.w3.org/2000/svg" xmlns:xlink="http://www.w3.org/1999/xlink" x="0px" y="0px"
	 width="200px" height="200px" viewBox="0 0 200 200" enable-background="new 0 0 200 200" xml:space="preserve">
<path fill="#231F20" d="M198.677,168.837h-0.949l-1.319-4.31l-10.642-14.936l-1.908-1.557l-2.399-3.107v-1.196l-6.926-10.518
	l-1.319-0.719l-2.39-2.633v-1.072l-1.45-0.348V90.045c0.966-0.398,1.646-1.254,1.646-2.255c0-0.172-0.014-0.347-0.062-0.509
	c2.771-0.443,4.812-1.574,5.183-2.932c7.68-0.268,13.145-0.846,13.138-1.457c-0.007-0.664-6.301-1.162-14.859-1.266
	c-1.213-0.666-2.963-1.141-4.953-1.268V77.3h-0.454v-1.018h0.393v-0.688l-0.278-0.622l-0.059-1.251l-0.509-0.052l-0.059-17.664
	l-0.79-1.014V73.78l-3.128,0.059l-1.193,1.481l3.98-0.461l-0.347,0.735v0.743l0.516,0.055l-0.063,0.907h-0.453l-0.056,3.008v0.068
	c-2.024,0.162-3.777,0.671-4.953,1.396c-4.272,0.155-7.857,0.385-10.208,0.678l-0.513-1.431l-1.701-0.037l-2.564-9.807l1.712-1.664
	l-0.697-3.608c0,0-0.516,0-1.135,0l-0.385-2.761l0.303-0.378v-1.11l-0.54-0.217l-0.183-1.254l-0.797,0.109l0.106,0.798l-1.145-0.468
	l-0.341-1.285c0,0-2.615-4.836-19.352-0.344c-16.739,4.503-17.124,9.879-17.124,9.879l0.116,0.446l-0.439,2.148l-0.729,0.075v0.578
	l0.729,0.563l-0.045,1.299l-0.604,0.076l-0.915,1.378l1.255,0.303l0.241,1.028l-1.076,1.419l-6.012,1.443
	c0,0-1.217,2.888-1.592,4.641c-0.385,1.75-0.158,2.358,0.227,3.11c0.379,0.764,1.214,1.221,1.214,1.221v9.239l-6.163-0.319V86.629
	c0,0,0.986-0.379,1.674-1.908c0.688-1.516-0.46-2.88-0.46-2.88l-2.578-4.806l-5.933,0.619l-1.069-1.368l0.227-2.434l-1.443-0.54
	l0.138-2.513c0,0-1.004-7.882-20.084-8.676c-19.08-0.797-21.425,6.689-21.425,6.689l-0.062,1.027l-0.567-0.01l-0.158,0.9
	l-0.281,0.075l-0.368,0.76c0,0,0.77,1.086,1.189,1.701l-0.093,1.664c-0.396,0.124-1.237,0.389-1.3,0.409
	c-0.075,0.027,0.289,3.406,0.289,3.517c0,0.062,0.42,0.388,0.767,0.646l-1.031,18.799c-1.938-0.162-3.685-0.269-5.249-0.334V79.802
	l2.307-3.251l-0.34-0.54l-0.925,0.729l-1.042-0.151V40.913c11.251,5.19,21.789,5.792,24.164,1.162
	c2.551-4.943-5.197-14.004-17.293-20.229c-12.109-6.229-23.978-7.27-26.528-2.32c-2.533,4.919,5.125,13.911,17.107,20.132v58.241
	c-3.713-0.041-6.226,0.196-7.913,0.488c-1.522-0.151-4.481-0.371-4.481-0.371l-0.128,1.426l-1.117,0.186l-0.116,1.056h0.186v2.393
	l-0.749,0.037l-0.244,3.17l2.402,1.512l-2.774,25.068l-2.495,1.034l-0.31,2.994l0.059,0.055v3.028l-0.433-0.041l0.13,1l1.117,1.237
	l2.424,1.688l0.188-0.381v2.798l-1.729,0.821l-0.086,1.636L3.286,165.146l-1.069,1.805l-0.742,0.248L0,173.351l1.475,0.079
	c0,0,2.221-0.488,2.379-1.88c0.165-1.403,0.165-3.864,0.165-3.864l-0.323-0.244l14.522-18.049c0,0-0.248,5.668-0.248,6.892
	c0,1.228-0.581,2.049-1.643,2.705c-1.072,0.664-2.626,2.056-3.444,2.72c-0.821,0.652-1.316,1.464-1.316,2.292
	c0,0.818-0.083,1.551-0.083,1.551l-1.313,2.382c0,0,0.574,1.151,1.396,1.151c0.828,0,1.396-1.234,1.396-1.234
	s-0.412-1.884-0.412-2.213v-1.637c0-0.581,0.903-1.313,1.89-2.221c0.98-0.896,2.214-1.887,2.867-2.378
	c0.663-0.488,1.563-1.475,1.643-3.039c0.086-1.557,0.574-6.073,0.574-6.073l13.371,11.419h0.577v0.071h2.053v-0.604l0.656-0.292
	l3.142-5.118l5.225,18.076l2.382,1.967l0.162,0.907l-0.571,0.075l0.155,4.675l1.075,2.135h2.207l-0.897-6.638l1.151-1.23
	l0.248-3.854l-0.502-0.168l1.313-4.184l0.989-1.233l0.165-0.821l0.742-0.076l0.237,0.406l1.97-0.736l-0.814-4.922H53.82l2.3-7.153
	c4.743,16.897,20.259,29.282,38.669,29.282c16.065,0,29.928-9.432,36.355-23.057l0.499,0.158l0.921,0.673l0.842-0.673l-0.928-1.341
	l2.183-1.265l1.271-1.327l1.915,7.276l-1.506,0.097l-2.183,1.004v1.928l4.661,0.656l0.626,2.372l-0.667,0.42l1.176,4.53h0.666
	l0.678,2.938l-0.262,0.588v3.867c0,0,1.266,1.595,2.354,1.498c1.094-0.075,1.427-2.179,1.427-2.179l-1.344-2.936l-0.922-0.839
	l-0.835-3.104c0,0,1.086,0.419,2.183-0.169c1.083-0.584,1.551-1.244,1.551-1.244v-4.091l-1.024-0.309v-0.55l15.663,2.203
	l0.076,0.986l6.053,1.172l4.476-1.805l-0.399-19.788l-0.921-1.045v-0.147l1.502,0.979l1.165-0.248l9.748-2.083l0.877,1.207
	l0.11,1.319l12.917,18.294l-0.237,0.838v4.18l3.465,2.269l1.079-0.48L198.677,168.837z M164.837,158.172
	c-0.732,0.034-1.434,0.072-1.557,0.109c-0.244,0.079,0-1.093,0-1.093s1.014-0.756,1.433-1.262c0.041-0.037,0.086-0.127,0.145-0.233
	L164.837,158.172z M144.76,164.736l0.034-0.22c0.364-0.072,0.839-0.165,1.399-0.274l-0.605,0.587L144.76,164.736z M149.27,152.49
	l0.079-2.352l1.55,1.547c-0.271,0.426-0.57,0.891-0.866,1.364L149.27,152.49z M166.057,145.258c0,0,0,1.726,0,1.932
	c0,0.213-0.271,0.563-0.271,0.563l-1.457-0.041l-1.244-0.588c0,0,0.106-1.004,0.106-1.21s1.348-1.097,1.348-1.097l0.484-1.498
	c0,0,0.271,1.072,0.271,1.213C165.294,144.677,166.057,145.258,166.057,145.258z M165.648,142.91l1.175-1.262v3.867L165.648,142.91z
	 M165.744,132.983l1.079-1.244v8.583l-1.274,0.853l-1.045-1.241l0.604-4.85l0.636-1.08V132.983z M158.269,143.529l-0.547,0.071
	l-0.24-0.866l5.582-8.803l1.027-0.79l0.083,0.715L158.269,143.529z M163.926,137.07l-0.186,2.729h-1.416L163.926,137.07z
	 M158.192,145.172l1.891-1.571l1.753-2.979l1.945-0.031l1.031,1.313l-0.374,0.659v0.657l0.134,0.519l-1.726,1.172l-0.416,1.313
	l-4.702-0.382L158.192,145.172z M156.749,147.262l5.523,1.488c-0.398,1.757-1.319,5.923-1.254,6.84
	c0.086,1.18,1.516,1.599,1.516,1.599v0.509h-0.667l0.326,0.832l-1.763,0.254l-10.876,2.142l1.258-2.101
	c0.076,0.024,0.155,0.042,0.221,0.042c0.326,0,0.474-0.764,0.536-1.31l2.104-3.51l0.382-0.554l0.842,0.258l0.247,1.341l4.286,3.691
	l1.757-0.254l-0.168-1.423l-4.025-3.688c0,0-1.427-0.093-1.427-0.344c0-0.059-0.31-0.416-0.763-0.918l1.262-2.1v-1.818
	L156.749,147.262z M153.954,151.252c-0.243-0.261-0.508-0.532-0.772-0.811l0.677-1.097l0.873-0.313l0.158,0.78L153.954,151.252z
	 M149.806,155.924l0.055,0.003v1.605l-2.491,3.818l-1.024,0.2L149.806,155.924z M147.757,163.933
	c2.341-0.468,5.304-1.052,7.308-1.454c3.774-0.753,5.789-1.513,5.789-1.513l0.557-0.021l-0.141,1.746l0.966,3.939l-15.114-1.64
	L147.757,163.933z M162.702,156.601c0,0-1.011-0.502-1.011-1.09c0-0.45,0.753-4.712,1.09-6.62l2.537,0.674
	c-0.228,1.341-0.894,5.362-1.107,5.778C163.96,155.848,162.702,156.601,162.702,156.601z M160.561,84.436
	c0.406,1.271,2.3,2.334,4.851,2.791c-0.056,0.186-0.083,0.371-0.083,0.563c0,0.945,0.608,1.771,1.495,2.187v19.386h-0.735
	l-1.21,2.599l-1.045,0.563l0.113,0.76l1.056-0.525l1.54,0.525v1.502l0.281,0.158v12.962l-2.258-0.274l-1.578,2.914l1.262,0.237
	l0.629-1.261l0.722-0.063l-1.117,1.956l-2.12,1.33l-6.14,10.226l0.399,1.65l-1.812,2.911l-1.966,1.104c0,0-0.21,0.33-0.558,0.876
	c-1.079-1.113-2.007-2.062-2.007-2.062l-1.262-0.083l-0.082-8.232l0.752-0.495l-0.254-4.365v-3.192l0.814-0.608l0.113,0.357
	l1.595-0.248l-1.43-5.641c1.43-0.271,2.311-0.742,2.015-1.333c-0.22-0.434-1.176-0.773-1.959-0.949l0.364-0.561v-1.175
	c0,0,0.924-0.671,1.512-1.681c0.588-1.004,0-1.847,0-1.847l0.904-2.945c11.449-3.18,11.872-5.744,11.872-5.744l-0.443-1.945
	l0.619-0.216c0,0-0.454-1.922-0.454-2.035c0-0.065-0.392-0.09-0.701-0.104l-0.611-2.726l0.715-1.079l-1.773-5.311l-0.393,0.034
	l-0.437-1.935c0,0-1.378-2.809-8.665-2.743l-0.055-0.622l0.821-0.468l-1.292-0.966l-0.884-2.901l1.069-0.484l-0.413-1.199
	C154.398,84.209,157.233,84.354,160.561,84.436z M149.688,121.098l-0.164-0.843l0.838-0.928l0.165-3.097h0.929l0.529-0.732
	l-0.282,1.313l-0.082,1.76l-1.341,1.604L149.688,121.098z M149.606,117.151c0,0.584-0.509,1.592-0.509,1.592l-0.584-1.843
	C148.514,116.9,149.606,116.563,149.606,117.151z M151.115,115.141l0.007-0.104c0.341-0.082,0.685-0.168,1.015-0.251l-0.107,0.499
	L151.115,115.141z M142.656,116.88l1.158,0.271l0.251,0.416c0,0,2.434,0,2.691,0c0.248,0,1.416,4.028,1.416,4.028l-1.251,0.337
	c0,0-1.093-1.262-2.021-1.846c-0.917-0.585-2.179-1.176-2.932-1.262c-0.433-0.038-1.072-0.876-1.55-1.577
	C141.134,117.141,141.869,117.018,142.656,116.88z M145.822,64.008l0.261,1.895h-0.437l-0.333-1.262L145.822,64.008z
	 M114.478,95.724l-1.595,2.176l-0.574-3.406l1.822-0.104L114.478,95.724z M109.129,75.293h-0.783v-1.537l-0.423-0.079v-0.649
	c0,0,0.306,0.158,0.708,0.351L109.129,75.293z M85.904,81.762c0,0,0.604,0.835,1.516,0.835c0.921,0,0.839-1.757,0.839-1.757
	l1.602-0.144c0,0-1.142,0.759-1.142,2.588c0,1.821,1.901,2.736,1.901,2.736v11.35l-0.31-0.021l-0.45,1.068
	c0,0-0.151,2.275-0.151,2.65c0,0.213-0.326,0.798-0.619,1.282c-1.22,0.172-2.409,0.402-3.585,0.67l-0.437-1.11v-2.434l0.764-0.15
	l-0.228-3.65c0,0-1.855-0.88-2.685-1.266l0.629-11.528L85.904,81.762z M33.472,154.827l-0.577-0.423l-0.079-1.32l-0.247-3.85
	l0.278-2.337c0.209,0.045,0.416,0.072,0.625,0.11V154.827z M20.466,103.031v-2.358l1.45-0.027l-0.258,2.32L20.466,103.031z
	 M16.667,137.479l1.183-0.048l-0.303,2.694l-0.88-0.072V137.479z M32.815,159.653L20.019,148.98l-0.089-1.224l2.853-3.101
	c2.142,0.67,5.091,1.402,9.126,2.09l-0.237,6.338l-0.742,1.977l0.573,1.303h1.802l0.168-0.986v4.317L32.815,159.653z
	 M35.524,158.808v-11.501c0.45,0.062,0.914,0.131,1.392,0.186c0,0.581,0,1.326,0,1.326l2.341,2.338l0.027,1.192L35.524,158.808z
	 M46.761,174.498l-1.719-2.131l-4.93-16.248l0.502-1.554l2.046,0.241l5.41,17.393L46.761,174.498z M51.271,162.44l-0.492,0.079
	l-0.488,1.723l-1.801-0.083l0.9,1.393l0.409,1.237l-0.979,4.51l-5.259-16.819l-1.551-1.151l-0.236-1.543l1.938-3.159l6.901,10.281
	l1.072,0.9L51.271,162.44z M52.02,158.749l-6.782-10.404c0.481,0.034,0.959,0.062,1.409,0.089l5.696,8.511L52.02,158.749z
	 M52.834,156.119l-4.96-7.62c2.764,0.12,4.96,0.09,6.699-0.027l0.068,1.007L52.834,156.119z M64.5,115.735l0.633-5.73
	c2.127,0.063,3.997,0.015,5.623-0.079C68.474,111.631,66.377,113.58,64.5,115.735z M113.179,106.39l0.13-0.393l-2.045-1.959
	l-1.526,0.357c0,0,0,0.22,0,0.42c-1.839-0.736-3.739-1.334-5.691-1.802l-0.196-1.254l-0.378-3.727l-0.378-0.017v-9.563
	c0,0,1.44-0.771,1.52-2.51c0.071-1.753-1.52-3.269-1.52-3.269v-0.835l2.052-0.465c0,0,0,0.76,0,1.142
	c0,0.385,0.375,1.065,0.839,1.065c0.45,0,1.138-1.065,1.138-1.065h3.189l0.536,1.221l0.54,0.157l1.337,5.143
	c-0.855,0.66-2.269,1.856-2.269,1.856l0.447,3.764l0.453-0.059l0.743,4.39l-0.021,0.021h0.021l0.195,1.147l0.942-0.165l-0.158-0.982
	h0.986l0.151,1.622l1.57,0.104l0.124,0.457c0,0,1.694,0.88,8.256,0.007c0.024,0.846,0.063,2.375,0.063,2.688
	c0,0.3,0.896,0.708,1.454,0.929l1.811,7.957h-1.23l-0.068,3.932c0,0,1.124,0.189,2.266,0.337l0.068,0.303
	c0,0,1.966,1.186,9.923,0.179c0.522,0.506,1.176,1.097,1.829,1.561c1.437,1.004,2.357,1.588,3.784,2.259
	c1.423,0.677,2.599,2.024,2.599,2.024l1.468-0.196l0.041,0.278c0,0-2.344,1.007-2.011,1.678c0.255,0.502,1.255,0.344,2.488,0.134
	l0.475,1.529c-0.708,0.278-2.543,1.358-2.543,1.358l-0.753,2.767l1.004-0.584l1.103,1.093l-0.931,0.839l-0.172,1.842l-0.757,0.086
	l-0.412,1.341l-1.513-0.416l-0.337,0.416l0.836,1.43l1.096,0.42l0.836-0.588l-0.083,2.344l0.592,0.258l0.247,7.807l-1.85-0.413
	l-0.588,0.581h-0.587l-0.248-0.839h-0.839v2.097l-3.691,2.599l-0.333,0.76h-1.187c0-0.584-0.023-1.643-0.082-2.354
	c-0.086-1.004-0.584-2.681-0.584-2.681l0.673-0.162l0.581,0.664l0.757-0.083v-1.76l-0.757-1.681l-1,0.337l0.33,1.176h-1.169
	l-1.093-2.104l-0.749,0.375c0.021-0.536,0.037-1.063,0.037-1.602c0-4.675-0.801-9.157-2.271-13.326l1.004-0.43l0.075-0.729
	l-1.457-2.187l-0.884,0.169C127.684,117.319,121.222,110.535,113.179,106.39z M147.091,154.425h-1.603l-4.189-2.863l3.352-2.44
	l2.265,0.179L147.091,154.425z M133.152,155.343l-0.45,0.055c0.45-1.285,0.842-2.595,1.158-3.932l0.801,1.952l0.749,0.075
	l0.049,0.142L133.152,155.343z M137.782,154.359l0.656-0.274l0.922-0.592l0.254-0.581c0,0,0.588-0.759,0.763-0.498
	c0.165,0.24,5.197,3.434,5.197,3.434h2.678c-1.502,2.375-2.997,4.737-3.812,6.074l-2.805,0.557l-1.891,0.11L137.782,154.359z
	 M143.251,167.669c-0.244,0-1.104,0-1.104,0l-0.089,1.519l-0.341-0.749h-0.584l-0.423-1.767l2.822,0.398
	C143.498,167.298,143.412,167.669,143.251,167.669z M164.098,161.983l-1.251-0.079l-0.065-1.027l2.038-0.176l-0.014,2.458
	L164.098,161.983z M168.566,166.222h-1.959l-0.072-6.606l0.952-0.161l0.086-0.588l-0.671-0.543c0.592-1.664,1.664-4.647,1.664-4.187
	C168.566,154.759,168.566,166.222,168.566,166.222z M171.292,147.791l-1.918-1.271v-16.06h0.375l0.952,1.196l1.192,2.513
	l6.819,9.683l1.2,0.956l0.56,0.773L171.292,147.791z"/>
</svg>
