<?xml version="1.0" encoding="utf-8"?>
<!-- Generator: Adobe Illustrator 16.0.0, SVG Export Plug-In . SVG Version: 6.00 Build 0)  -->
<!DOCTYPE svg PUBLIC "-//W3C//DTD SVG 1.1//EN" "http://www.w3.org/Graphics/SVG/1.1/DTD/svg11.dtd">
<svg version="1.1" id="Layer_1" xmlns="http://www.w3.org/2000/svg" xmlns:xlink="http://www.w3.org/1999/xlink" x="0px" y="0px"
	 width="200px" height="200px" viewBox="0 0 200 200" enable-background="new 0 0 200 200" xml:space="preserve">
<path fill="#231F20" d="M93.476,127.129h12.722l-1.766-97.995h-9.193L93.476,127.129z M93.476,25.649h12.722v-2.197h4.673v-3.056
	h-4.673v-4.37h4.673V12.97h-4.673V8.612h4.673v-3.06h-4.673V0H93.476v5.553h-4.673v3.06h4.673v4.357h-4.673v3.057h4.673v4.37h-4.673
	v3.056h4.673V25.649z M126.826,143.555c0-12.45,10.494-25.362,7.279-28.712c-3.212-3.346-6.43,3.619-11.646,5.896
	c-5.226,2.273-11.463,1.562-11.463,1.562v8.065H89.001v-18.021c0,0-6.433-2.359-9.092-12.723
	c-2.665-10.363,1.036-19.098,1.036-19.098s-12.462,5.132-12.462,19.067c0,13.92,5.865,16.848,5.865,30.774
	c0,13.926-13.93,26.392-13.93,41.052c0,14.659,11.726,28.583,40.315,28.583c28.59,0,38.849-14.657,38.849-27.125
	C139.582,160.418,126.826,156.029,126.826,143.555z M110.91,181.686H88.549v-7.216h22.361V181.686z M110.91,168.508H88.549v-7.048
	h22.361V168.508z"/>
</svg>
