<?xml version="1.0" encoding="utf-8"?>
<!-- Generator: Adobe Illustrator 16.0.0, SVG Export Plug-In . SVG Version: 6.00 Build 0)  -->
<!DOCTYPE svg PUBLIC "-//W3C//DTD SVG 1.1//EN" "http://www.w3.org/Graphics/SVG/1.1/DTD/svg11.dtd">
<svg version="1.1" id="Layer_1" xmlns="http://www.w3.org/2000/svg" xmlns:xlink="http://www.w3.org/1999/xlink" x="0px" y="0px"
	 width="200px" height="200px" viewBox="0 0 200 200" enable-background="new 0 0 200 200" xml:space="preserve">
<path fill="#231F20" d="M170.701,48.799c-17.516,0-21.323,7.855-44.46-6.375c-23.129-14.23-53.232-32.34-78.832-32.34
	c-35.7,0-47.371,17.016-47.371,43.24C0.038,61.492,0,138.881,0,162.713s9.689,27.205,27.2,27.205h146.026
	c19.38,0,26.773-11.961,26.773-26.783V93.934C200,59.23,188.216,48.799,170.701,48.799z M12.681,176.604V86.205h15.253v53.668h7.059
	v36.73H12.681z M64.329,176.604H42.005v-36.73h7.104V86.205h15.22V176.604z M71.003,176.604V86.205h14.922v53.668h7.394v36.73
	H71.003z M122.643,176.604h-22.308v-36.73h6.753V86.205h15.555V176.604z M129.324,176.604V86.205h15.303v53.668h7.009v36.73H129.324
	z M180.977,176.604h-22.324v-36.73h7.407V86.205h14.917V176.604z"/>
</svg>
