<?xml version="1.0" encoding="utf-8"?>
<!-- Generator: Adobe Illustrator 16.0.0, SVG Export Plug-In . SVG Version: 6.00 Build 0)  -->
<!DOCTYPE svg PUBLIC "-//W3C//DTD SVG 1.1//EN" "http://www.w3.org/Graphics/SVG/1.1/DTD/svg11.dtd">
<svg version="1.1" id="Layer_1" xmlns="http://www.w3.org/2000/svg" xmlns:xlink="http://www.w3.org/1999/xlink" x="0px" y="0px"
	 width="200px" height="200px" viewBox="0 0 200 200" enable-background="new 0 0 200 200" xml:space="preserve">
<path fill="#231F20" d="M35.335,46.095V23.88c0-7.506-6.143-13.644-13.64-13.644h-0.052c-7.498,0-13.628,6.138-13.628,13.644v22.804
	C3.117,50.724,0,56.836,0,63.688c0,6.844,3.117,12.955,8.016,17.009v95.431c0,7.494,6.13,13.636,13.628,13.636h0.052
	c7.497,0,13.64-6.142,13.64-13.636V81.273c5.322-4.02,8.788-10.393,8.788-17.585C44.123,56.487,40.657,50.122,35.335,46.095z
	 M37.188,65.519c-0.018,0.166-0.057,0.323-0.074,0.488c-0.083,0.463-0.166,0.925-0.279,1.369c-0.043,0.14-0.069,0.279-0.104,0.418
	c-0.335,1.182-0.802,2.319-1.395,3.379c-2.624,4.62-7.576,7.746-13.277,7.759C13.636,78.919,6.83,72.105,6.809,63.688
	c0-1.569,0.24-3.086,0.685-4.508c0-0.008,0.018-0.018,0.018-0.018c0.14-0.462,0.306-0.924,0.497-1.368l0.008-0.026
	c2.312-5.484,7.729-9.319,14.042-9.319c7.004,0,12.872,4.708,14.672,11.133c0.035,0.136,0.062,0.271,0.104,0.419
	c0.113,0.436,0.196,0.897,0.279,1.359c0.018,0.166,0.057,0.322,0.074,0.497c0.069,0.593,0.117,1.198,0.126,1.831
	C37.305,64.308,37.257,64.917,37.188,65.519z M87.305,99.372V23.88c0-7.506-6.133-13.644-13.635-13.644h-0.057
	c-7.489,0-13.632,6.138-13.632,13.644v75.092c-5.271,4.027-8.675,10.349-8.675,17.497c0,7.145,3.404,13.475,8.675,17.507v42.152
	c0,7.494,6.143,13.636,13.632,13.636h0.057c7.502,0,13.635-6.142,13.635-13.636v-42.563c4.952-4.05,8.116-10.2,8.126-17.097
	C95.421,109.572,92.257,103.418,87.305,99.372z M88.53,118.073c-0.014,0.078-0.035,0.157-0.049,0.222
	c-0.043,0.467-0.117,0.911-0.213,1.356c0,0.03-0.01,0.061-0.018,0.087c-0.223,1.012-0.549,1.971-0.946,2.886l0,0
	c-2.375,5.349-7.716,9.084-13.94,9.093c-5.775-0.009-10.789-3.217-13.383-7.951l0,0c-0.274-0.514-0.514-1.028-0.731-1.561
	c-0.065-0.147-0.109-0.296-0.166-0.448c-0.148-0.393-0.274-0.785-0.384-1.19c-0.057-0.183-0.104-0.37-0.144-0.558
	c-0.105-0.401-0.184-0.812-0.24-1.217c-0.026-0.179-0.062-0.353-0.083-0.536c-0.069-0.593-0.118-1.181-0.118-1.787
	c0-0.61,0.049-1.194,0.118-1.787c0.021-0.184,0.057-0.357,0.083-0.532c0.057-0.409,0.135-0.819,0.231-1.212
	c0.048-0.195,0.096-0.383,0.152-0.566c0.109-0.414,0.235-0.798,0.384-1.186c0.057-0.157,0.101-0.305,0.166-0.453
	c0.218-0.532,0.457-1.055,0.731-1.561l0,0c2.594-4.726,7.607-7.942,13.383-7.942c7.298,0,13.383,5.126,14.887,11.97
	c0.008,0.026,0.018,0.053,0.018,0.079c0.096,0.444,0.17,0.906,0.227,1.368c0.013,0.074,0.021,0.145,0.035,0.214
	c0.057,0.536,0.082,1.063,0.082,1.608S88.587,117.555,88.53,118.073z M139.268,41.482V23.88c0-7.506-6.129-13.644-13.635-13.644
	h-0.044c-7.497,0-13.636,6.138-13.636,13.644v17.193c-5.266,4.036-8.677,10.361-8.677,17.506c0,7.149,3.411,13.47,8.677,17.498
	v100.051c0,7.494,6.139,13.636,13.636,13.636h0.044c7.506,0,13.635-6.142,13.635-13.636V75.676c4.952-4.049,8.135-10.2,8.135-17.097
	C147.402,51.679,144.22,45.532,139.268,41.482z M140.497,60.188c0,0.064-0.026,0.143-0.026,0.222
	c-0.069,0.454-0.13,0.907-0.227,1.352c-0.009,0.03-0.017,0.052-0.025,0.096c-0.228,0.994-0.541,1.962-0.951,2.872l0,0
	c-2.371,5.341-7.715,9.081-13.923,9.103c-5.789-0.014-10.802-3.221-13.392-7.96v-0.004c-0.27-0.502-0.514-1.021-0.74-1.553
	c-0.053-0.147-0.097-0.296-0.157-0.432c-0.14-0.396-0.271-0.793-0.384-1.215c-0.052-0.184-0.096-0.367-0.148-0.55
	c-0.096-0.41-0.174-0.812-0.235-1.221c-0.034-0.183-0.061-0.357-0.078-0.532c-0.078-0.58-0.113-1.177-0.122-1.787
	c0.009-0.609,0.044-1.203,0.122-1.791c0.018-0.175,0.044-0.345,0.078-0.527c0.062-0.41,0.14-0.82,0.235-1.229
	c0.053-0.175,0.097-0.358,0.148-0.545c0.113-0.405,0.244-0.815,0.384-1.208c0.061-0.148,0.104-0.287,0.157-0.427
	c2.275-5.58,7.732-9.512,14.132-9.521c6.208,0.009,11.552,3.749,13.923,9.094l0,0c0.41,0.906,0.724,1.879,0.951,2.885
	c0.009,0.026,0.017,0.053,0.025,0.079c0.097,0.453,0.157,0.906,0.227,1.368c0,0.07,0.026,0.14,0.026,0.219
	c0.053,0.527,0.088,1.072,0.088,1.604C140.585,59.12,140.55,59.656,140.497,60.188z M191.246,122.214V23.88
	c0-7.506-6.146-13.644-13.635-13.644h-0.053c-7.497,0-13.627,6.138-13.627,13.644v98.875c-4.917,4.045-8.047,10.174-8.047,17.035
	s3.13,12.978,8.047,17.027v19.311c0,7.494,6.13,13.636,13.627,13.636h0.053c7.489,0,13.635-6.142,13.635-13.636v-18.779
	c5.31-4.015,8.754-10.383,8.754-17.559C200,132.606,196.556,126.242,191.246,122.214z M193.06,141.604
	c-0.017,0.175-0.043,0.336-0.061,0.497c-0.078,0.453-0.166,0.907-0.271,1.343c-0.035,0.148-0.078,0.288-0.113,0.44
	c-0.157,0.527-0.322,1.042-0.531,1.547c-0.009,0.035-0.018,0.065-0.026,0.105c-2.275,5.562-7.733,9.485-14.115,9.494
	c-8.422-0.009-15.239-6.818-15.248-15.24c0.009-2.127,0.444-4.149,1.237-5.989l0,0c2.319-5.44,7.716-9.25,14.011-9.263
	c6.382,0.013,11.84,3.936,14.106,9.503c0.018,0.039,0.026,0.073,0.043,0.113c0.201,0.501,0.366,1.016,0.523,1.538
	c0.035,0.148,0.078,0.297,0.113,0.445c0.104,0.444,0.192,0.889,0.271,1.334c0.018,0.165,0.044,0.326,0.061,0.496
	c0.088,0.602,0.131,1.199,0.131,1.822C193.19,140.409,193.147,141.02,193.06,141.604z"/>
</svg>
