<?xml version="1.0" encoding="utf-8"?>
<!-- Generator: Adobe Illustrator 16.0.0, SVG Export Plug-In . SVG Version: 6.00 Build 0)  -->
<!DOCTYPE svg PUBLIC "-//W3C//DTD SVG 1.1//EN" "http://www.w3.org/Graphics/SVG/1.1/DTD/svg11.dtd">
<svg version="1.1" id="Layer_1" xmlns="http://www.w3.org/2000/svg" xmlns:xlink="http://www.w3.org/1999/xlink" x="0px" y="0px"
	 width="200px" height="200px" viewBox="0 0 200 200" enable-background="new 0 0 200 200" xml:space="preserve">
<path fill="#231F20" d="M143.527,60.448v60.963c-0.213,13.026-4.327,18.883-11.462,23.27c-7.26,4.306-18.78,6.047-32.066,5.995
	c-13.292,0.052-24.798-1.689-32.058-5.995c-7.134-4.387-11.249-10.243-11.462-23.27V60.448h-12.63v60.963
	c-0.206,16.128,6.83,28.045,17.729,34.173c9.169,5.275,20.243,7.12,32.109,7.583v24.202H55.032V200h89.943v-12.631h-38.662v-24.202
	c11.866-0.463,22.946-2.308,32.108-7.583c10.911-6.128,17.936-18.045,17.729-34.173V60.448H143.527z M91.883,117.634H63.056
	c0.47,11.94,16.811,21.543,36.943,21.543c20.134,0,36.482-9.603,36.952-21.543H108.12v-8.119h28.875v-9.478H108.12v-8.119h28.875
	v-9.479H108.12V74.32h28.875V64.85H108.12V56.73h28.875v-9.479H108.12v-8.111h28.875v-9.479H108.12v-8.127h28.831
	C136.474,9.596,120.133,0,99.999,0C79.87,0,63.533,9.596,63.056,21.535h28.828v8.127H63.011v9.479h28.872v8.111H63.011v9.479h28.872
	v8.119H63.011v9.471h28.872v8.119H63.011v9.479h28.872v8.119H63.011v9.478h28.872V117.634z"/>
</svg>
