<?xml version="1.0" encoding="utf-8"?>
<!-- Generator: Adobe Illustrator 16.0.0, SVG Export Plug-In . SVG Version: 6.00 Build 0)  -->
<!DOCTYPE svg PUBLIC "-//W3C//DTD SVG 1.1//EN" "http://www.w3.org/Graphics/SVG/1.1/DTD/svg11.dtd">
<svg version="1.1" id="Layer_1" xmlns="http://www.w3.org/2000/svg" xmlns:xlink="http://www.w3.org/1999/xlink" x="0px" y="0px"
	 width="200px" height="200px" viewBox="0 0 200 200" enable-background="new 0 0 200 200" xml:space="preserve">
<path fill="#231F20" d="M200,98.063l-0.059-16.691h-6.767v4.482c0,0-27.066-0.183-57.424-0.313v-2.349h1.706v-5.39h-4.273v-8.704
	h4.58V66.05h-11.774v3.048h4.591v8.704h-4.274v5.39h1.696v2.316c-2.159-0.007-4.31-0.02-6.43-0.026v-2.29h1.706v-5.39h-4.284v-8.704
	h4.588V66.05h-11.769v3.048h4.587v8.704h-4.28v5.39h1.703v2.271c-2.202-0.006-4.349-0.02-6.434-0.026v-2.244h1.706v-5.39h-4.277
	v-8.704h4.584V66.05H97.635v3.048h4.587v8.704h-4.28v5.39h1.7v2.225c-3.439-0.006-6.627-0.006-9.433-0.006
	c-31.102,0-46.139-2.46-53.6-3.08c-7.459-0.613-11.769-0.985-17.863-5.292c-6.101-4.3-8.098-17.35-11.982-17.35
	C2.878,59.688,0,71.857,0,88.092c0,16.247,2.646,29.897,6.744,29.897c4.094,0,3.037-11.105,11.366-17.317
	c5.204-3.882,10.711-4.881,16.346-5.09c-1.727,2.591-2.79,5.651-2.93,8.946c-0.193,4.124,1.118,8.202,3.673,11.465
	c3.309,4.229,8.369,6.779,13.889,7.001l1.739,0.065c1.546,1.983,3.856,3.25,6.479,3.341l42.335,1.351v7.171h-1.7v5.39h11.154v-5.39
	h-1.706v-6.916l6.434,0.195v6.721h-1.703v5.39h11.158v-5.39h-1.706v-6.466l6.43,0.202v6.264h-1.696v5.39h11.151v-5.39h-1.706v-6.016
	l16.453,0.521c0.081,0,0.163,0,0.238,0c1.882,0,3.706-0.757,5.168-2.107l5.271,0.359c0.219,0.006,0.435,0.006,0.656,0.006
	c9.813,0,17.804-8.933,17.804-19.921c0-5.337-1.847-10.192-4.842-13.84c10.238-0.124,16.655-0.195,16.655-0.195v4.333H200z
	 M154.967,120.587l-19.216-0.764v-4.815h16.361c1.557,0,2.881,1.487,2.937,3.314l0.032,1.266
	C155.095,119.935,155.049,120.267,154.967,120.587z M107.39,108.378V94.767c2.141-0.025,4.287-0.039,6.434-0.071v13.683H107.39z
	 M113.823,115.008v3.935l-6.434-0.255v-3.68H113.823z M99.642,94.858v13.52h-8.78c0.477-1.174,0.761-2.492,0.761-3.889
	c0-5.031-3.504-9.122-7.791-9.122c-4.297,0-7.784,4.091-7.784,9.122c0,1.396,0.273,2.715,0.75,3.889H61.623V95.282
	C72.311,95.172,85.596,95.015,99.642,94.858z M80.086,104.489c0-2.421,1.677-4.392,3.745-4.392c2.071,0,3.742,1.971,3.742,4.392
	c0,1.71-0.845,3.165-2.053,3.889h-3.38C80.931,107.654,80.086,106.199,80.086,104.489z M57.222,115.008h42.42v3.373l-45.007-1.787
	C54.98,115.673,55.981,115.008,57.222,115.008z M128.002,119.517l-6.43-0.261v-4.248h6.43V119.517z M121.572,108.378V94.604
	c2.156-0.02,4.297-0.045,6.43-0.071v13.846H121.572z M37.174,104.874c0.179-3.98,2.815-7.478,6.573-9.402
	c3.23-0.026,7.533-0.072,12.636-0.131v13.09c-2.163,0.222-4.153,1.292-5.546,3.027c-1.112,1.384-1.762,3.086-1.938,4.888
	C42.152,115.889,36.902,110.818,37.174,104.874z M175.678,107.765c0,7.419-5.416,13.305-12.14,13.305c-0.16,0-0.307,0-0.464-0.013
	l-2.391-0.248c0.049-0.483,0.068-0.973,0.062-1.462l-0.049-1.272c-0.163-5.344-4.017-9.696-8.584-9.696h-16.361V94.44
	c11.784-0.124,19.275-0.261,28.798-0.372C170.794,94.878,175.678,100.725,175.678,107.765z"/>
</svg>
