<?xml version="1.0" encoding="utf-8"?>
<!-- Generator: Adobe Illustrator 21.1.0, SVG Export Plug-In . SVG Version: 6.00 Build 0)  -->
<svg version="1.0" id="Layer_1" xmlns="http://www.w3.org/2000/svg" xmlns:xlink="http://www.w3.org/1999/xlink" x="0px" y="0px"
	 viewBox="0 0 200 200" style="enable-background:new 0 0 200 200;" xml:space="preserve">
<style type="text/css">
	.st0{fill:#231F20;}
</style>
<g>
	<circle class="st0" cx="124.6" cy="82.8" r="10.2"/>
	<path class="st0" d="M186.8,61h-0.9c-4.6-9.5-10.7-18.2-18.4-25.8C149.5,17,125.5,7,100,7S50.5,17,32.4,35.2
		C24.8,42.8,18.6,51.6,14.1,61h-0.9C5.9,61,0,66.9,0,74.2v36.3c0,7.3,5.9,13.2,13.2,13.2h9.1c7.3,0,13.2-5.9,13.2-13.2v-2.8
		c0.8,0.1,1.7,0.2,2.6,0.2h2.3v39.3c0,10.5,8.5,19,19,19h3.5V178c0,8.3,6.7,15,15,15c8.3,0,15-6.7,15-15v-11.6h14.6V178
		c0,8.3,6.7,15,15,15c8.3,0,15-6.7,15-15v-11.6h3.1c10.5,0,19-8.5,19-19V108h2.3c0.9,0,1.7-0.1,2.6-0.2v2.8
		c0,7.3,5.9,13.2,13.2,13.2h9.1c7.3,0,13.2-5.9,13.2-13.2V74.2C200,66.9,194.1,61,186.8,61z M56,82.8c0-10.7,8.7-19.4,19.4-19.4
		s19.4,8.7,19.4,19.4s-8.7,19.4-19.4,19.4S56,93.5,56,82.8z M100.7,154.1c-22.7,0-41.2-16.5-41.2-36.8c0-0.7,0-1.5,0.1-2.2h82.2
		c0,0.7,0.1,1.5,0.1,2.2C141.9,137.6,123.5,154.1,100.7,154.1z M124.6,102.1c-10.7,0-19.4-8.7-19.4-19.4s8.7-19.4,19.4-19.4
		c10.7,0,19.4,8.7,19.4,19.4S135.3,102.1,124.6,102.1z M164.5,74.2v4c-0.8-0.1-1.7-0.2-2.6-0.2h-2.3V66.1c0-10.5-8.5-19-19-19H59.4
		c-10.5,0-19,8.5-19,19v11.8H38c-0.9,0-1.7,0.1-2.6,0.2v-4c0-6.4-4.6-11.7-10.6-12.9C39.6,34.7,67.7,16.7,100,16.7
		c32.3,0,60.4,18,75.1,44.6C169.1,62.5,164.5,67.8,164.5,74.2z"/>
	<circle class="st0" cx="75.4" cy="82.8" r="10.2"/>
</g>
</svg>
